<?xml version="1.0" standalone="no"?>
<!DOCTYPE svg PUBLIC "-//W3C//DTD SVG 20010904//EN"
 "http://www.w3.org/TR/2001/REC-SVG-20010904/DTD/svg10.dtd">
<svg version="1.0" xmlns="http://www.w3.org/2000/svg"
 width="1080.000000pt" height="1246.000000pt" viewBox="0 0 1080.000000 1246.000000"
 preserveAspectRatio="xMidYMid meet">
<metadata>
Created by potrace 1.16, written by Peter Selinger 2001-2019
</metadata>
<g transform="translate(0.000000,1246.000000) scale(0.100000,-0.100000)"
fill="#000000" stroke="none">
<path d="M5504 10876 c10 -8 22 -17 25 -18 23 -10 101 -171 101 -208 0 -11 4
-20 9 -20 5 0 13 -30 16 -67 4 -38 13 -74 19 -82 16 -20 16 -602 0 -622 -7 -8
-15 -42 -19 -77 -4 -34 -11 -65 -16 -68 -5 -3 -9 -15 -9 -27 0 -12 -7 -35 -15
-51 -8 -15 -15 -32 -15 -36 0 -17 -65 -120 -76 -120 -6 0 -18 -7 -25 -17 -13
-15 -9 -16 56 -9 125 12 256 68 364 154 135 109 220 252 261 442 13 61 9 205
-9 283 -66 293 -329 531 -611 553 -68 5 -73 4 -56 -10z"/>
<path d="M2783 10355 c-157 -43 -281 -162 -332 -320 -21 -64 -21 -69 -21
-1992 0 -1601 3 -1936 14 -1973 26 -87 61 -145 127 -212 76 -78 158 -121 260
-137 93 -16 5222 -15 5286 0 93 21 173 67 243 137 67 68 102 128 126 217 11
41 14 392 14 1971 l0 1921 -21 64 c-46 140 -133 239 -265 301 l-69 33 -302 3
-303 3 0 -245 0 -246 230 0 230 0 0 -1713 0 -1714 -347 -6 c-190 -4 -1336 -7
-2545 -7 l-2198 0 2 1723 3 1722 238 3 237 2 0 240 0 240 -277 -1 c-206 0
-292 -4 -330 -14z"/>
<path d="M5919 8929 c79 -20 150 -52 191 -84 41 -33 110 -108 116 -127 3 -10
10 -18 15 -18 5 0 9 -5 9 -11 0 -6 7 -25 15 -42 30 -65 45 -179 45 -339 l0
-158 246 0 246 0 -4 213 c-5 216 -6 222 -51 317 -37 79 -122 163 -209 208 -96
49 -192 62 -463 61 l-230 -1 74 -19z"/>
<path d="M3457 2743 c-24 -117 -309 -1452 -313 -1465 -5 -17 6 -18 145 -18
134 0 150 2 155 18 3 9 28 125 56 257 28 132 56 261 61 288 l11 47 123 0 c219
0 350 44 461 156 114 114 170 270 162 452 -3 84 -8 104 -33 150 -34 63 -87
103 -165 126 -44 13 -108 16 -356 16 l-301 0 -6 -27z m480 -208 c62 -26 78
-57 77 -150 -1 -128 -55 -228 -148 -271 -43 -20 -67 -24 -150 -24 -97 0 -98 0
-94 23 3 12 24 115 48 230 l44 207 93 0 c60 0 106 -5 130 -15z"/>
<path d="M7280 2560 l-33 -159 -75 -3 -76 -3 -18 -80 c-27 -121 -29 -115 52
-115 39 0 70 -3 70 -8 0 -4 -34 -169 -76 -367 -64 -303 -75 -372 -72 -434 3
-65 7 -76 30 -96 41 -35 125 -49 257 -42 63 4 116 9 119 11 4 5 41 169 42 189
0 4 -25 7 -55 7 -57 0 -95 22 -95 55 0 12 117 587 135 663 5 21 11 22 89 22
l84 0 15 68 c8 37 18 82 22 100 l7 32 -85 0 -85 0 30 138 c16 75 31 147 35
160 l5 22 -144 0 -145 0 -33 -160z"/>
<path d="M1918 2420 c-173 -29 -293 -121 -378 -290 -94 -186 -156 -565 -115
-705 36 -124 143 -187 320 -187 55 0 122 5 149 11 127 30 233 112 294 228 25
48 61 141 62 161 0 1 -57 2 -127 1 l-128 0 -38 -79 c-43 -90 -77 -120 -144
-128 -111 -12 -146 77 -107 275 l17 83 290 2 291 3 12 65 c57 297 32 446 -84
517 -79 47 -195 63 -314 43z m129 -214 c27 -23 28 -28 28 -118 0 -51 -4 -101
-7 -110 -7 -16 -24 -18 -158 -18 l-152 0 7 33 c15 68 49 141 83 179 43 48 62
57 124 57 36 1 54 -5 75 -23z"/>
<path d="M4965 2421 c-60 -15 -111 -47 -174 -108 -36 -34 -66 -61 -67 -60 -1
1 4 31 11 67 8 36 14 69 15 73 0 4 -62 6 -137 5 l-137 -3 -118 -555 c-65 -305
-118 -561 -118 -568 0 -10 32 -12 142 -10 l141 3 78 361 c42 199 84 375 93
391 22 44 98 108 144 121 22 7 71 12 110 12 l71 0 16 78 c9 42 23 103 30 134
10 48 10 58 -2 62 -19 8 -60 6 -98 -3z"/>
<path d="M5468 2415 c-244 -49 -390 -262 -460 -670 -45 -267 -5 -417 127 -476
93 -41 251 -47 375 -12 220 61 355 269 421 651 45 263 11 410 -109 475 -83 45
-224 58 -354 32z m150 -201 c13 -9 28 -28 34 -43 33 -87 -26 -441 -102 -606
-15 -33 -44 -75 -63 -94 -30 -28 -46 -35 -91 -39 -50 -4 -58 -2 -84 25 -52 52
-51 152 5 403 45 203 94 312 156 350 39 24 114 26 145 4z"/>
<path d="M6530 2420 c-193 -25 -330 -140 -422 -356 -74 -173 -120 -452 -98
-588 28 -172 123 -241 331 -239 252 1 405 101 491 323 14 36 29 80 33 98 l7
32 -135 0 -135 0 -21 -68 c-23 -78 -65 -145 -107 -173 -43 -28 -115 -26 -151
5 -24 21 -28 32 -31 95 -5 89 11 199 53 366 35 141 67 215 112 257 77 73 191
62 209 -20 3 -15 7 -32 9 -38 2 -7 0 -37 -4 -68 l-8 -56 138 0 137 0 7 66 c29
270 -122 402 -415 364z"/>
<path d="M8110 2419 c-90 -16 -194 -71 -257 -136 -136 -142 -242 -487 -231
-755 3 -91 7 -109 33 -157 32 -59 89 -102 160 -123 65 -19 259 -14 332 10 209
67 331 250 404 609 27 128 31 303 10 376 -20 68 -79 131 -148 157 -66 25 -218
34 -303 19z m132 -200 c48 -26 61 -134 33 -295 -37 -212 -95 -386 -148 -442
-51 -55 -133 -69 -180 -32 -56 45 -59 135 -11 369 62 303 126 411 242 411 24
0 52 -5 64 -11z"/>
<path d="M9303 2415 c-66 -20 -127 -60 -176 -115 -25 -27 -47 -50 -50 -50 -2
0 2 28 9 63 7 34 13 68 14 75 0 9 -33 12 -135 12 -131 0 -135 -1 -140 -22 -9
-37 -235 -1109 -235 -1114 0 -2 64 -4 143 -4 l142 0 74 348 c40 191 82 367 93
392 43 99 111 142 242 150 l90 5 27 130 c15 72 25 133 22 138 -7 11 -73 7
-120 -8z"/>
<path d="M2500 1996 c0 -3 -11 -56 -25 -120 -14 -64 -25 -118 -25 -121 0 -3
133 -5 295 -5 l295 0 5 23 c20 89 45 209 45 217 0 6 -103 10 -295 10 -162 0
-295 -2 -295 -4z"/>
</g>
</svg>
